<svg enable-background="new 0 0 64 64" height="512" viewBox="0 0 64 64" width="512" xmlns="http://www.w3.org/2000/svg"><g id="upload_1_"><g><path d="m51.691 3.864h-39.382c-.552 0-1 .448-1 1s.448 1 1 1h39.383c.552 0 1-.448 1-1s-.448-1-1.001-1z"/><path d="m32.744 9.033c-.379-.423-1.109-.423-1.488 0l-10.243 11.411c-.369.411-.335 1.043.076 1.412s1.043.334 1.412-.076l8.499-9.467v46.823c0 .552.448 1 1 1s1-.448 1-1v-46.823l8.499 9.468c.197.22.47.332.745.332.238 0 .477-.084.667-.256.411-.369.445-1.001.076-1.412z"/></g></g></svg>