<svg xmlns="http://www.w3.org/2000/svg" width="146.447" height="25.311" viewBox="0 0 146.447 25.311">
  <g id="그룹_20" data-name="그룹 20" transform="translate(-182.429 -226.727)">
    <path id="패스_27" data-name="패스 27" d="M187.543,251.777a6.264,6.264,0,0,1-2.84-1.674,10.154,10.154,0,0,1-1.687-2.538,7.533,7.533,0,0,1-.587-1.863c-.016-1.039.567-2.023,1.372-1.9a1.293,1.293,0,0,1,.97.637c.219.443.306.949.5,1.391a4.77,4.77,0,0,0,1.7,2.17,4,4,0,0,0,2.879.536,3.123,3.123,0,0,0,2.164-1.365,2.5,2.5,0,0,0,.332-1.295,5.737,5.737,0,0,0-.246-1.181,13.074,13.074,0,0,0-1.768-3.211,29.177,29.177,0,0,1-3.782-5.359,7.23,7.23,0,0,1-.729-3.04c.059-3.181,2.344-5.781,4.83-5.929a2.744,2.744,0,0,1,1.854.735,6.051,6.051,0,0,1,1.684,2.638,8.893,8.893,0,0,1,.412,1.656,3.4,3.4,0,0,1-.2,2.037c-.663,1.049-1.959.769-2.281-.482-.091-.372-.024-.8-.115-1.177a3.527,3.527,0,0,0-1.055-1.947.81.81,0,0,0-.625-.055,2.712,2.712,0,0,0-1.535,1.32,3.2,3.2,0,0,0-.347.959,2.98,2.98,0,0,0,.242,1.282,9.289,9.289,0,0,0,1.058,1.846c1.144,1.648,2.556,3.071,3.591,4.849a10.8,10.8,0,0,1,1.587,4.646,6.482,6.482,0,0,1-.383,2.734,6.037,6.037,0,0,1-1.218,1.968,5.85,5.85,0,0,1-3.613,1.75A7.825,7.825,0,0,1,187.543,251.777Z" transform="translate(0 -0.145)" fill="#154c8e"/>
    <path id="패스_28" data-name="패스 28" d="M206.41,250.984a3.456,3.456,0,0,1-.172-1.077c.032-2.412.04-4.857.046-7.269a55.434,55.434,0,0,1,.439-8.059,12.26,12.26,0,0,1,1.062-3.481,3.463,3.463,0,0,1,1.6-1.72,1.91,1.91,0,0,1,2.164.846,14.177,14.177,0,0,1,1.678,3.543c.635,2,1.032,4.091,1.534,6.151.183.743,1.313,5,1.523,5.716a77.038,77.038,0,0,0,.873-8.513,45.822,45.822,0,0,0,.124-5.021c-.013-.37-.168-1.916-.1-2.249.295-1.7,2.127-1.835,2.514-.214a8.035,8.035,0,0,1,.173,1.782,65.476,65.476,0,0,1-.222,7.833,70.217,70.217,0,0,1-1.053,8.439,12.824,12.824,0,0,1-.627,2.256c-.456,1.091-1.544,1.588-2.329.89a4.582,4.582,0,0,1-1.157-2.017c-.451-1.289-.822-2.609-1.193-3.962-.509-1.894-1.016-3.787-1.446-5.712-.294-1.283-.561-2.6-.961-3.853a11.935,11.935,0,0,0-.937-2.311,8.4,8.4,0,0,0-.685,2.422,27.762,27.762,0,0,0-.309,3.608c-.121,3.447-.034,6.934-.077,10.383,0,.1.046.17.044.237C209.418,251.591,207.155,252.819,206.41,250.984Z" transform="translate(-8.035 -0.597)" fill="#154c8e"/>
    <path id="패스_29" data-name="패스 29" d="M236.551,251.023c-2.635-.091-4.469-2.869-5.04-5.971a23.768,23.768,0,0,1-.111-6.537c.427-3.973,2.466-9.262,5.628-10.827.054-.032.056-.1.084-.164a1.275,1.275,0,0,1,1.36-.791,4.1,4.1,0,0,1,1.528.356c2.057.909,3.138,4.33,3.441,6.853a26.49,26.49,0,0,1-.34,7.46C242.38,245.632,240.593,251.164,236.551,251.023Zm.116-3.313c2.53.088,3.572-5.068,3.97-7.466a22.8,22.8,0,0,0,.25-5.653c-.161-1.379-.826-3.983-1.883-4.388a1.591,1.591,0,0,1-.853.506,4.188,4.188,0,0,0-1.807,1.613,15.814,15.814,0,0,0-2.482,8.222,16.318,16.318,0,0,0,.163,3.557C234.282,245.718,235.232,247.661,236.667,247.71Z" transform="translate(-16.468 -0.001)" fill="#154c8e"/>
    <path id="패스_30" data-name="패스 30" d="M266.536,251.664a2.127,2.127,0,0,1-1.131-.508,6.222,6.222,0,0,1-1.706-2.74,22.113,22.113,0,0,1-1.078-5,37.76,37.76,0,0,1-1.532,4.234,10.424,10.424,0,0,1-1.691,2.789,2.117,2.117,0,0,1-1.2.7,1.816,1.816,0,0,1-1.7-.729,6.377,6.377,0,0,1-.986-2.414,39.562,39.562,0,0,1-.7-6.122c-.091-1.88-.284-9.792.146-11.62.215-.932.917-1.576,1.614-1.351a1.494,1.494,0,0,1,.943.669,1.989,1.989,0,0,1,.25,1.081,2.5,2.5,0,0,1-.352,1.094c-.138,1.7-.147,3.446-.13,5.188.036,2.682.1,5.364.4,8.021a18.032,18.032,0,0,0,.412,2.393c.048.136.109-.13.191-.227a36.318,36.318,0,0,0,3.272-11.378c.067-.433.32-2.435.465-2.832a2.036,2.036,0,0,1,.66-.948,1.172,1.172,0,0,1,.659-.179,1.3,1.3,0,0,1,.794.431,2.123,2.123,0,0,1,.478,1.289c.046.906.04,1.811.089,2.684.1,2.315.229,4.631.515,6.886a16.788,16.788,0,0,0,.974,4.255,3.621,3.621,0,0,0,.517.889,3.808,3.808,0,0,0,.385-.557,22.283,22.283,0,0,0,1.448-3.3,47.981,47.981,0,0,0,1.935-7.5,28.636,28.636,0,0,0,.541-5.777,2.687,2.687,0,0,1,.068-1.2,1.69,1.69,0,0,1,.818-.976,1.346,1.346,0,0,1,1.674,1.4,27.648,27.648,0,0,1-.093,4.151,49.186,49.186,0,0,1-2.418,10.838C270.2,247.738,268.589,251.97,266.536,251.664Z" transform="translate(-24.386 -0.716)" fill="#154c8e"/>
    <path id="패스_31" data-name="패스 31" d="M305.25,252.715c-2.816-.1-4.493-4.445-4.853-7.574a22.43,22.43,0,0,1,.082-4.587,21.515,21.515,0,0,1,2.809-8.613c1-1.674,2.6-3.26,4.316-3.2,2.009.071,3.568,1.766,4.218,4.1a7.2,7.2,0,0,1,.208,1.515c-.115,1.035-.735,1.616-1.362,1.594a1.383,1.383,0,0,1-1.188-1.114c-.023-.1-.1-.841-.15-.943-.278-1.015-.983-1.776-1.739-1.8a1.3,1.3,0,0,0-.739.242c-1.47.954-2.433,3.1-3.022,4.987a20.135,20.135,0,0,0-.9,6.368,9.624,9.624,0,0,0,1.051,4.291c.293.58.865,1.371,1.466,1.391.7.025,1.412-.822,1.86-1.677a11.58,11.58,0,0,0,1.163-4.114c-.913-.032-2.838-.234-2.886-1.844a2.323,2.323,0,0,1,.2-1.2,1.4,1.4,0,0,1,1.2-.8.926.926,0,0,1,.617.256.821.821,0,0,0,.619.223,8.259,8.259,0,0,0,3.506-.916,1.186,1.186,0,0,1,.473-.084c.913.031,1.549,1.26,1.09,2.416a1.345,1.345,0,0,1-.761.845c-.451.186-.9.37-1.377.555-.026,0-.028.066-.03.1a18.934,18.934,0,0,0,.782,5.253c.072.17.484,1.089.529,1.259a1.682,1.682,0,0,1-1.331,2.231,1.176,1.176,0,0,1-.821-.43,12.733,12.733,0,0,1-.847-1.906C308.43,251.385,307.076,252.778,305.25,252.715Z" transform="translate(-39.781 -0.679)" fill="#154c8e"/>
    <path id="패스_32" data-name="패스 32" d="M326.809,250.565a1.212,1.212,0,0,1-.821-.43,1.723,1.723,0,0,1-.34-.716,22.938,22.938,0,0,1-.259-3.8c-.023-1.576.006-3.15.115-4.754.271-3.274.855-6.5,1.282-9.772a4.3,4.3,0,0,0-.59.449c-.216.193-.459.419-.72.41a1.156,1.156,0,0,1-.854-.231,1.958,1.958,0,0,1-.033-2.781,7.786,7.786,0,0,1,3.7-1.982,12.152,12.152,0,0,1,4.26-.086,4.447,4.447,0,0,1,2.386,1.222c2.046,1.981,1.956,6.032.5,8.8a12.367,12.367,0,0,1-3.8,4.189c.766.5,3.7,2.441,4.244,3.331a2.027,2.027,0,0,1-.346,2.434,1.12,1.12,0,0,1-1.411.017,22.287,22.287,0,0,0-3.536-2.669c-.612-.423-1.277-.816-1.861-1.3a2.235,2.235,0,0,1-.68-.727c-.079,1.538-.081,3.079-.031,4.623.033.537.04,1.107.125,1.646a2.278,2.278,0,0,1,.024.839,1.677,1.677,0,0,1-.5.953A1.09,1.09,0,0,1,326.809,250.565Zm1.43-11.006a3.411,3.411,0,0,1,.511-.417,11.4,11.4,0,0,0,4.281-3.67,5.731,5.731,0,0,0,.849-3.354,3.251,3.251,0,0,0-.18-.843c-.6-1.362-2.957-1.31-4.191-1.118.011.437-.3,2.5-.364,2.936C328.834,235.258,328.472,237.389,328.239,239.559Z" transform="translate(-47.784 0)" fill="#154c8e"/>
    <path id="패스_33" data-name="패스 33" d="M352.159,250.225a4.047,4.047,0,0,1-3.788-2.946,19.631,19.631,0,0,1-.582-7.257c.208-2.941.649-5.84,1.091-8.74-1.156.194-1.909-1.44-1.214-2.622a1.192,1.192,0,0,1,.674-.613,26.976,26.976,0,0,1,7.954-1.2c.965.033,1.548,1.294,1.118,2.384a1.374,1.374,0,0,1-1.026.936c-.21.026-1.516.048-1.725.04a18.31,18.31,0,0,0-3.017.4c-.367,2.265-.708,4.532-.969,6.8a19.48,19.48,0,0,0,2.387-.318c.892-.1,1.619.759,1.5,1.861a1.561,1.561,0,0,1-1.149,1.467,23.209,23.209,0,0,1-3.066.329,21.09,21.09,0,0,0,.144,4.059c.128.843.358,1.688,1.055,1.947a2.469,2.469,0,0,0,1.3.113,17.841,17.841,0,0,0,2.893-.57c1.211-.293,1.981,1.577,1.157,2.754a1.558,1.558,0,0,1-.829.574A15.75,15.75,0,0,1,352.159,250.225Z" transform="translate(-55.671 -0.042)" fill="#154c8e"/>
    <path id="패스_34" data-name="패스 34" d="M371.521,250.225a4.046,4.046,0,0,1-3.787-2.946,19.616,19.616,0,0,1-.582-7.257c.207-2.941.649-5.84,1.09-8.74-1.156.194-1.909-1.44-1.214-2.622a1.188,1.188,0,0,1,.674-.613,26.969,26.969,0,0,1,7.954-1.2c.966.033,1.548,1.294,1.118,2.384a1.374,1.374,0,0,1-1.026.936c-.209.026-1.516.048-1.725.04a18.326,18.326,0,0,0-3.017.4c-.367,2.265-.707,4.532-.969,6.8a19.492,19.492,0,0,0,2.388-.318c.891-.1,1.618.759,1.5,1.861a1.562,1.562,0,0,1-1.148,1.467,23.23,23.23,0,0,1-3.067.329,21.092,21.092,0,0,0,.145,4.059c.127.843.358,1.688,1.054,1.947a2.469,2.469,0,0,0,1.3.113,17.828,17.828,0,0,0,2.893-.57c1.212-.293,1.982,1.577,1.157,2.754a1.563,1.563,0,0,1-.829.574A15.76,15.76,0,0,1,371.521,250.225Z" transform="translate(-62.205 -0.042)" fill="#154c8e"/>
    <path id="패스_35" data-name="패스 35" d="M387.5,250.406c-1.174-.041-1.315-1.218-1.273-2.423,0-5.16.154-10.348.544-15.527.041-.434.2-2.607.289-3.039.241-.9.612-1.821,1.5-1.79a1.651,1.651,0,0,1,1.174,2.286,2.09,2.09,0,0,0-.144.364c-.134.867-.429,5.512-.459,6.383a42.3,42.3,0,0,0,5.326-6.649,4.162,4.162,0,0,1,.9-1.108,1.169,1.169,0,0,1,.686-.211c.991.035,1.691,1.668.869,2.812-.659.882-1.242,1.9-1.926,2.781-.985,1.272-1.993,2.477-3.054,3.679.121.272.242.545.389.818,1.487,3.034,3.323,5.778,5.052,8.619.69,1.163.007,2.781-1.089,2.743a1.284,1.284,0,0,1-1-.638c-1.851-3.079-3.809-6.063-5.416-9.368a2.8,2.8,0,0,1-.727.611c-.054.032-.184.027-.186.094-.088,2.51-.15,5.02-.134,7.533,0,.068.012.4.01.47a1.952,1.952,0,0,1-.349,1.026A1.063,1.063,0,0,1,387.5,250.406Z" transform="translate(-68.77 -0.304)" fill="#154c8e"/>
  </g>
</svg>
